<svg xmlns="http://www.w3.org/2000/svg" viewBox="0 0 2000 1247"><svg transform="translate(-1.212 .505)" viewBox="0 0 396 247"><path fill="#1b62d4" d="m384.643 0-10.181 56.171H190.545L200.726 0zm-98.089 247.2h-75.149l9.785-56.171h75.149zm-84.246-18.985-3.164 17.798-167.7-17.798zm3.56-20.567L49.283 191.029h159.54zM181.346 37.97l-2.769 17.798-167.7-17.798zM188.07 0l-3.164 17.798L17.601 0z"/><svg viewBox="-9 -32 150.2 32.75"><path fill="#1b62d4" d="m38.25-31.25-1.45 8h-6.9L25.85 0h-9.5l4.05-23.25h-6.85l1.45-8zM15.2-2.4l-.4 2.25L-6.4-2.4zm1.7-9.65-.4 2.25-21.2-2.25zm.85-4.8-.4 2.25-21.2-2.25zm.85-4.8-.4 2.25L-3-21.65zm-2.55 14.4L15.65-5l-21.2-2.25zm-3.5-19.2-.35 2.25L-9-26.45zm.85-4.8L13-29l-21.15-2.25zM55.3 0h-8.75l4.6-26.45h8.8zm-10-2.4-.4 2.25L23.7-2.4zm1.7-9.65-.4 2.25-21.2-2.25zm.85-4.8-.4 2.25-21.2-2.25zm.85-4.8-.4 2.25-21.2-2.25zm.8-4.8-.35 2.25-21.2-2.25zm-3.35 19.2L45.75-5l-21.2-2.25zM88.45 0l-5.1-11.1c-.133-.233-.2-.56-.2-.98 0-.413.033-.887.1-1.42h-.4L80.5 0H71l5.5-31.25h8.95l5.1 11.1c.1.233.15.557.15.97 0 .42-.033.897-.1 1.43h.4l2.4-13.5h9.5L97.4 0zM69.9-2.4l-.4 2.25L48.3-2.4zm1.7-9.65-.4 2.25L50-12.05zm.85-4.8-.4 2.25-21.2-2.25zm.85-4.8-.4 2.25-21.2-2.25zm.8-4.8-.35 2.25-21.2-2.25zm-3.35 19.2L70.35-5l-21.2-2.25zm4.2-24-.4 2.25-21.15-2.25zm65.5 13.05L137.5-1.5C133.433 0 129.35.75 125.25.75s-7.057-.817-8.87-2.45c-1.82-1.633-2.73-4.15-2.73-7.55 0-1.433.233-3.55.7-6.35 1-5.8 2.767-9.983 5.3-12.55s6.733-3.85 12.6-3.85c1.267 0 2.85.133 4.75.4s3.3.567 4.2.9l-2.75 7.65c-2.5-.467-4.79-.7-6.87-.7-2.087 0-3.58.167-4.48.5-.9.333-1.433 1-1.6 2L123.05-7.1h3.15c1.133 0 1.977-.127 2.53-.38.547-.247.903-.82 1.07-1.72l.25-1.35h-2.4L129-18.2zm-27.35 1.35-.15 1a11.45 11.45 0 0 0-.2 1.1l-19.65-2.1zm-20.55 4.8h19.85c-.1.767-.15 1.467-.15 2.1zm1.75-9.6h20l-.6 2.05zm-1.1 14.4h19.1c.133.933.25 1.633.35 2.1zm3.45-19.2h19.7c-.467.867-.8 1.533-1 2zM98-2.4h15.8c.433.767.933 1.383 1.5 1.85zm5.55-28.85h17.55c-.967.6-1.717 1.15-2.25 1.65z"/></svg></svg></svg>