<svg xmlns="http://www.w3.org/2000/svg" version="1.1" xmlns:xlink="http://www.w3.org/1999/xlink" xmlns:svgjs="http://svgjs.dev/svgjs" width="500" height="312" viewBox="0 0 500 312"><g transform="matrix(1,0,0,1,-1.2121212121212466,0.504858299595071)"><svg viewBox="0 0 396 247" data-background-color="#ffffff" preserveAspectRatio="xMidYMid meet" height="312" width="500" xmlns="http://www.w3.org/2000/svg" xmlns:xlink="http://www.w3.org/1999/xlink"><defs></defs><g id="tight-bounds" transform="matrix(1,0,0,1,0.2400000000000091,-0.09999999999999432)"><svg viewBox="0 0 395.52 247.2" height="247.2" width="395.52"><g><svg></svg></g><g><svg viewBox="0 0 395.52 247.2" height="247.2" width="395.52"><g><path d="M384.643 0l-10.181 56.171-183.917 0 10.181-56.171zM286.554 247.2h-75.149l9.785-56.171 75.149 0zM202.308 228.215l-3.164 17.798-167.7-17.798zM205.868 207.648l-156.585-16.619 159.54 0zM181.346 37.97l-2.769 17.798-167.7-17.798zM188.07 0l-3.164 17.798-167.305-17.798z" fill="#1b62d4" data-fill-palette-color="tertiary"></path></g><g transform="matrix(1,0,0,1,0,76.5299600532623)"><svg viewBox="0 0 395.52 94.14007989347537" height="94.14007989347537" width="395.52"><g><svg viewBox="0 0 395.52 94.14007989347537" height="94.14007989347537" width="395.52"><g><svg viewBox="0 0 395.52 94.14007989347537" height="94.14007989347537" width="395.52"><g><svg viewBox="0 0 395.52 94.14007989347537" height="94.14007989347537" width="395.52"><g><svg viewBox="0 0 395.52 94.14007989347537" height="94.14007989347537" width="395.52"><g transform="matrix(1,0,0,1,0,0)"><svg width="395.52" viewBox="-8.999999999999998 -32 150.2 32.75" height="94.14007989347537" data-palette-color="#1b62d4"><svg></svg><g class="undefined-text-0" data-fill-palette-color="primary" id="text-0"><path d="M38.25-31.25l-1.45 8h-6.9l-4.05 23.25h-9.5l4.05-23.25h-6.85l1.45-8zM15.2-2.4l-0.4 2.25-21.2-2.25zM16.9-12.05l-0.4 2.25-21.2-2.25zM17.75-16.85l-0.4 2.25-21.2-2.25zM18.6-21.65l-0.4 2.25-21.2-2.25zM16.05-7.25l-0.4 2.25-21.2-2.25zM12.55-26.45l-0.35 2.25-21.2-2.25zM13.4-31.25l-0.4 2.25-21.15-2.25zM55.3 0h-8.75l4.6-26.45h8.8zM45.3-2.4l-0.4 2.25-21.2-2.25zM47-12.05l-0.4 2.25-21.2-2.25zM47.85-16.85l-0.4 2.25-21.2-2.25zM48.7-21.65l-0.4 2.25-21.2-2.25zM49.5-26.45l-0.35 2.25-21.2-2.25zM46.15-7.25l-0.4 2.25-21.2-2.25zM88.45 0l-5.1-11.1c-0.133-0.233-0.2-0.56-0.2-0.98 0-0.413 0.033-0.887 0.1-1.42v0h-0.4l-2.35 13.5h-9.5l5.5-31.25h8.95l5.1 11.1c0.1 0.233 0.15 0.557 0.15 0.97 0 0.42-0.033 0.897-0.1 1.43v0h0.4l2.4-13.5h9.5l-5.5 31.25zM69.9-2.4l-0.4 2.25-21.2-2.25zM71.6-12.05l-0.4 2.25-21.2-2.25zM72.45-16.85l-0.4 2.25-21.2-2.25zM73.3-21.65l-0.4 2.25-21.2-2.25zM74.1-26.45l-0.35 2.25-21.2-2.25zM70.75-7.25l-0.4 2.25-21.2-2.25zM74.95-31.25l-0.4 2.25-21.15-2.25zM140.45-18.2l-2.95 16.7c-4.067 1.5-8.15 2.25-12.25 2.25-4.1 0-7.057-0.817-8.87-2.45-1.82-1.633-2.73-4.15-2.73-7.55v0c0-1.433 0.233-3.55 0.7-6.35v0c1-5.8 2.767-9.983 5.3-12.55 2.533-2.567 6.733-3.85 12.6-3.85v0c1.267 0 2.85 0.133 4.75 0.4 1.9 0.267 3.3 0.567 4.2 0.9v0l-2.75 7.65c-2.5-0.467-4.79-0.7-6.87-0.7-2.087 0-3.58 0.167-4.48 0.5-0.9 0.333-1.433 1-1.6 2v0l-2.45 14.15h3.15c1.133 0 1.977-0.127 2.53-0.38 0.547-0.247 0.903-0.82 1.07-1.72v0l0.25-1.35h-2.4l1.35-7.65zM113.1-16.85l-0.15 1c-0.067 0.267-0.133 0.633-0.2 1.1v0l-19.65-2.1zM92.55-12.05h19.85c-0.1 0.767-0.15 1.467-0.15 2.1v0zM94.3-21.65h20l-0.6 2.05zM93.2-7.25h19.1c0.133 0.933 0.25 1.633 0.35 2.1v0zM96.65-26.45h19.7c-0.467 0.867-0.8 1.533-1 2v0zM98-2.4h15.8c0.433 0.767 0.933 1.383 1.5 1.85v0zM103.55-31.25h17.55c-0.967 0.6-1.717 1.15-2.25 1.65v0z" data-fill-palette-color="primary" fill="#1b62d4" opacity="1"></path></g></svg></g></svg></g></svg></g></svg></g></svg></g></svg></g></svg></g></svg><rect width="395.52" height="247.2" fill="none" stroke="none" visibility="hidden"></rect></g></svg></g></svg>